<svg xmlns="http://www.w3.org/2000/svg" viewBox="0 0 540 210" fill="none">
  <rect x="0" y="0" width="540" height="210" rx="10" fill="#faf5ff" stroke="#c084fc" stroke-width="1.5" />
  <text x="20" y="28" font-size="14" font-weight="600" font-family="sans-serif" fill="#7c3aed">🧠 CPU — Central Processing Unit</text>
  <text x="20" y="48" fill="#475569" font-size="11" font-family="sans-serif">"Brain of the computer" — all calculations and decisions happen here</text>
  <rect x="30" y="65" width="120" height="115" rx="8" fill="#1e293b" stroke="#6366f1" stroke-width="2" />
  <rect x="45" y="78" width="90" height="30" rx="4" fill="#0f172a" stroke="#334155" stroke-width="1" />
  <text x="90" y="97" text-anchor="middle" fill="#f8fafc" font-size="10" font-weight="600" font-family="monospace">Core 1</text>
  <rect x="45" y="113" width="90" height="30" rx="4" fill="#0f172a" stroke="#334155" stroke-width="1" />
  <text x="90" y="132" text-anchor="middle" fill="#f8fafc" font-size="10" font-weight="600" font-family="monospace">Core 2</text>
  <rect x="45" y="150" width="90" height="20" rx="3" fill="#312e81" />
  <text x="90" y="164" text-anchor="middle" fill="#c7d2fe" font-size="9" font-weight="600" font-family="sans-serif">🔲 Processor Chip</text>
  <path d="M150,120 L170,120" stroke="#f59e0b" stroke-width="2" />
  <polygon points="170,116 178,120 170,124" fill="#f59e0b" />
  <rect x="180" y="75" width="150" height="80" rx="8" fill="#0f172a" stroke="#334155" stroke-width="1.5" />
  <text x="255" y="98" text-anchor="middle" fill="#f8fafc" font-size="11" font-weight="600" font-family="sans-serif">CPU Speed</text>
  <rect x="210" y="108" width="90" height="22" rx="4" fill="#1e293b" />
  <text x="255" y="123" text-anchor="middle" fill="#22c55e" font-size="11" font-family="monospace">3.5 GHz</text>
  <text x="255" y="145" text-anchor="middle" fill="#93c5fd" font-size="9" font-family="sans-serif">The more GHz, the faster it is</text>
  <text x="360" y="78" font-weight="600" fill="#475569" font-size="11" font-family="sans-serif">CPU Example Brands</text>
  <rect x="360" y="88" width="160" height="28" rx="4" fill="#dbeafe" stroke="#93c5fd" stroke-width="1" />
  <text x="440" y="106" text-anchor="middle" fill="#1e40af" font-size="11" font-weight="600" font-family="sans-serif">Intel Core i5 / i7</text>
  <rect x="360" y="122" width="160" height="28" rx="4" fill="#fce7f3" stroke="#f9a8d4" stroke-width="1" />
  <text x="440" y="140" text-anchor="middle" fill="#9d174d" font-size="11" font-weight="600" font-family="sans-serif">AMD Ryzen 5 / 7</text>
  <rect x="360" y="160" width="160" height="25" rx="4" fill="#fef3c7" stroke="#fbbf24" stroke-width="1" />
  <text x="440" y="177" text-anchor="middle" fill="#92400e" font-size="11" font-family="sans-serif">👑 CPU = The Boss of the Computer</text>
</svg>