<svg xmlns="http://www.w3.org/2000/svg" viewBox="0 0 700 140" fill="none">
  <rect width="700" height="140" fill="#0f172a" rx="6"/>

  <text x="350" y="24" text-anchor="middle" font-size="14" font-weight="700" font-family="sans-serif" fill="#f8fafc">React 15 vs React 16 (Fiber)</text>

  <text x="60" y="58" font-size="12" font-weight="700" font-family="sans-serif" fill="#fca5a5">React 15</text>
  <rect x="140" y="44" width="500" height="24" rx="4" fill="#7f1d1d" opacity="0.3" stroke="#ef4444" stroke-width="1"/>
  <text x="390" y="60" text-anchor="middle" font-size="11" font-family="sans-serif" fill="#fca5a5">[━━━━━━━━━━━━━━━━━━━━━━━━━━━━━━━━━━] — ek saath, ruk nahi sakta</text>

  <text x="60" y="102" font-size="12" font-weight="700" font-family="sans-serif" fill="#86efac">Fiber</text>
  <rect x="140" y="88" width="500" height="24" rx="4" fill="#166534" opacity="0.3" stroke="#22c55e" stroke-width="1"/>
  <rect x="144" y="91" width="48" height="18" rx="2" fill="#22c55e" opacity="0.6"/>
  <rect x="198" y="91" width="48" height="18" rx="2" fill="#22c55e" opacity="0.6"/>
  <rect x="252" y="91" width="48" height="18" rx="2" fill="#22c55e" opacity="0.6"/>
  <rect x="306" y="91" width="48" height="18" rx="2" fill="#22c55e" opacity="0.6"/>
  <rect x="360" y="91" width="48" height="18" rx="2" fill="#22c55e" opacity="0.6"/>
  <rect x="414" y="91" width="48" height="18" rx="2" fill="#22c55e" opacity="0.6"/>
  <rect x="468" y="91" width="48" height="18" rx="2" fill="#22c55e" opacity="0.6"/>
  <rect x="522" y="91" width="48" height="18" rx="2" fill="#22c55e" opacity="0.6"/>
  <rect x="576" y="91" width="48" height="18" rx="2" fill="#22c55e" opacity="0.6"/>
  <text x="390" y="106" text-anchor="middle" font-size="11" font-family="sans-serif" fill="#86efac">[━━][━━][━━][━━][━━][━━][━━][━━][━━] — chhote pieces, beech mein ruk sakta hai</text>
</svg>
